<svg width="32" height="32" viewBox="0 0 32 32" fill="none" xmlns="http://www.w3.org/2000/svg">
<g clip-path="url(#clip0_201_446)">
<path d="M2.113 19.9438C1.32749 19.9442 0.571554 19.6443 0 19.1055L0 21.9196C0 22.2535 0.132625 22.5736 0.368698 22.8097C0.604771 23.0458 0.924955 23.1784 1.25881 23.1784H17.1784V19.9438H2.113Z" fill="#000000"/>
<path d="M17.1782 24.1562H12.4445V26.3043C12.4445 26.9881 12.4445 28.5894 9.09547 28.5894H8.08297C8.01828 28.5886 7.9541 28.6008 7.89412 28.625C7.83415 28.6492 7.77958 28.6852 7.73358 28.7306C7.68758 28.7761 7.65106 28.8303 7.62614 28.89C7.60121 28.9497 7.58838 29.0137 7.58838 29.0784C7.58838 29.1431 7.60121 29.2071 7.62614 29.2668C7.65106 29.3265 7.68758 29.3807 7.73358 29.4262C7.77958 29.4717 7.83415 29.5076 7.89412 29.5318C7.9541 29.5561 8.01828 29.5682 8.08297 29.5674H17.2215C17.1929 29.401 17.1784 29.2325 17.1782 29.0636V24.1562Z" fill="#000000"/>
<path d="M20.1657 4.36886H30.0125C30.456 4.3684 30.8939 4.4673 31.2942 4.65829L31.2977 2.20954C31.298 2.04406 31.2656 1.88014 31.2024 1.72718C31.1393 1.57422 31.0466 1.43521 30.9297 1.31811C30.8127 1.20101 30.6739 1.10811 30.521 1.04472C30.3681 0.981342 30.2043 0.948722 30.0388 0.94873H1.25991C1.09457 0.94873 0.930839 0.981302 0.778082 1.04459C0.625324 1.10787 0.486529 1.20062 0.369622 1.31755C0.252716 1.43448 0.159989 1.5733 0.0967357 1.72607C0.0334829 1.87884 0.000943753 2.04257 0.000976587 2.20792V16.8537C0.00096838 17.131 0.0555924 17.4057 0.16173 17.6619C0.267867 17.9182 0.423439 18.151 0.619563 18.3472C0.815687 18.5433 1.04852 18.6989 1.30477 18.805C1.56102 18.9112 1.83567 18.9658 2.11304 18.9658H17.1784V7.35636C17.1792 6.56431 17.4942 5.80493 18.0543 5.24485C18.6143 4.68477 19.3737 4.36973 20.1657 4.36886Z" fill="#000000"/>
<path d="M30.0125 5.36865H20.1657C19.6386 5.36865 19.1331 5.57805 18.7603 5.95078C18.3876 6.32351 18.1782 6.82903 18.1782 7.35615V29.0637C18.1782 29.5908 18.3876 30.0963 18.7603 30.469C19.1331 30.8418 19.6386 31.0512 20.1657 31.0512H30.0125C30.5397 31.0512 31.0452 30.8418 31.4179 30.469C31.7906 30.0963 32 29.5908 32 29.0637V7.35615C32 6.82903 31.7906 6.32351 31.4179 5.95078C31.0452 5.57805 30.5397 5.36865 30.0125 5.36865ZM25.7088 29.8052H24.4697C24.3371 29.8052 24.2099 29.7525 24.1161 29.6587C24.0223 29.5649 23.9697 29.4378 23.9697 29.3052C23.9697 29.1725 24.0223 29.0454 24.1161 28.9516C24.2099 28.8578 24.3371 28.8052 24.4697 28.8052H25.7088C25.8414 28.8052 25.9686 28.8578 26.0623 28.9516C26.1561 29.0454 26.2088 29.1725 26.2088 29.3052C26.2088 29.4378 26.1561 29.5649 26.0623 29.6587C25.9686 29.7525 25.8414 29.8052 25.7088 29.8052ZM27.641 7.83778H22.5375C22.4049 7.83778 22.2777 7.7851 22.184 7.69133C22.0902 7.59756 22.0375 7.47039 22.0375 7.33778C22.0375 7.20517 22.0902 7.07799 22.184 6.98422C22.2777 6.89046 22.4049 6.83778 22.5375 6.83778H27.6412C27.7738 6.83778 27.9009 6.89046 27.9947 6.98422C28.0885 7.07799 28.1412 7.20517 28.1412 7.33778C28.1412 7.47039 28.0885 7.59756 27.9947 7.69133C27.9009 7.7851 27.7738 7.83778 27.6412 7.83778H27.641Z" fill="#000000"/>
</g>
<defs>
<clipPath id="clip0_201_446">
<rect width="32" height="32" fill="white"/>
</clipPath>
</defs>
</svg>
