<svg width="32" height="32" viewBox="0 0 32 32" fill="none" xmlns="http://www.w3.org/2000/svg">
<g clip-path="url(#clip0_201_6373)">
<path d="M30.8694 5.10669C29.9873 3.58244 28.7196 2.30406 27.2035 1.40981C25.6399 0.4875 23.8491 0 22.0246 0C20.2002 0 18.4092 0.4875 16.8457 1.40981C15.3296 2.30412 14.0619 3.5825 13.1798 5.10669C12.9997 5.41788 13.0134 5.8045 13.2151 6.10213L17.247 12.0536C17.2704 12.0519 17.2937 12.05 17.3176 12.05H20.2217L19.6289 10.2714C19.4652 9.78025 19.7307 9.24931 20.2219 9.08556C20.7131 8.92194 21.244 9.18738 21.4077 9.6785L22.0246 11.5292L22.6415 9.6785C22.8052 9.18731 23.3361 8.92181 23.8274 9.08556C24.3186 9.24931 24.584 9.78019 24.4203 10.2714L23.8275 12.05H26.7317C26.7556 12.05 26.7789 12.0518 26.8023 12.0536L30.8342 6.10213C31.0357 5.8045 31.0494 5.41788 30.8694 5.10669Z" fill="#000000"/>
<path d="M18.0747 30.0584C18.0747 31.129 18.9457 32 20.0163 32H24.0331C25.1037 32 25.9747 31.129 25.9747 30.0584V13.925H18.0747V30.0584Z" fill="#000000"/>
<path d="M2.0083 11.9167H10.9125V21.0876H2.0083V11.9167Z" fill="#000000"/>
<path d="M1.00391 30.0583C1.00391 31.1289 1.87491 31.9999 2.94553 31.9999H9.97478C11.0454 31.9999 11.9164 31.1289 11.9164 30.0583V22.9624H1.00391V30.0583Z" fill="#000000"/>
<path d="M9.90808 1.94159C9.90808 1.00921 9.24277 0.306152 8.36058 0.306152C8.13752 0.306152 7.91189 0.351152 7.69008 0.439965L4.53389 1.7024C3.66639 2.0494 3.01221 3.01565 3.01221 3.94997V10.0417H9.90808V1.94159Z" fill="#000000"/>
</g>
<defs>
<clipPath id="clip0_201_6373">
<rect width="32" height="32" fill="white"/>
</clipPath>
</defs>
</svg>
