<svg width="21" height="20" viewBox="0 0 21 20" fill="none" xmlns="http://www.w3.org/2000/svg">
<g id="download">
<path id="Icon" d="M6.85718 13.4176H4.29595C2.67291 13.4176 1.35718 12.3107 1.35718 10.6877C1.35718 9.06462 2.67291 7.74889 4.29595 7.74889C4.40632 7.74889 4.51527 7.75498 4.62248 7.76683V7.74889H4.6629C4.63623 7.53495 4.62248 7.31699 4.62248 7.09583C4.62248 4.21042 6.96157 1.87134 9.84697 1.87134C11.8009 1.87134 13.5043 2.94395 14.4005 4.53248C14.6195 4.50027 14.8435 4.48358 15.0715 4.48358C17.5962 4.48358 19.6429 6.53028 19.6429 9.05501C19.6429 11.358 17.9399 13.0545 15.7245 13.3713H13.3572M10.1735 8.07542V18.1286M10.1735 18.1286L7.85718 15.8713M10.1735 18.1286L12.4286 15.8713" stroke="#388FF3" stroke-width="2" stroke-linecap="round" stroke-linejoin="round"/>
</g>
</svg>
