<svg width="20" height="20" viewBox="0 0 20 20" fill="none" xmlns="http://www.w3.org/2000/svg">
<path d="M12.2059 13.5V15.25C12.2059 15.7141 12.02 16.1592 11.689 16.4874C11.3581 16.8156 10.9092 17 10.4412 17H4.26471C3.79668 17 3.34782 16.8156 3.01687 16.4874C2.68593 16.1592 2.5 15.7141 2.5 15.25L2.5 4.75C2.5 4.28587 2.68593 3.84075 3.01687 3.51256C3.34782 3.18438 3.79668 3 4.26471 3L10.4412 3C10.9092 3 11.3581 3.18437 11.689 3.51256C12.02 3.84075 12.2059 4.28587 12.2059 4.75V6.5M17.5001 10.0001L6.07849 10.0001M6.07849 10.0001L8.72555 12.6251M6.07849 10.0001L8.72555 7.37508" stroke="#16191D" stroke-width="2" stroke-linecap="round" stroke-linejoin="round"/>
</svg>
