<svg width="30" height="30" viewBox="0 0 30 30" fill="none" xmlns="http://www.w3.org/2000/svg">
<path fill-rule="evenodd" clip-rule="evenodd" d="M6.95698 27.9335C8.30765 24.4402 11.6997 21.9602 15.6663 21.9602C19.633 21.9602 23.025 24.4402 24.3757 27.9335C24.4943 28.2402 24.4543 28.5869 24.2677 28.8589C24.081 29.1309 23.773 29.2935 23.4423 29.2935H7.89032C7.56099 29.2935 7.25165 29.1309 7.06498 28.8589C6.87965 28.5869 6.83832 28.2402 6.95698 27.9335Z" fill="#388FF3"/>
<path fill-rule="evenodd" clip-rule="evenodd" d="M15.976 23.1774C15.856 23.7161 15.3214 24.0561 14.7827 23.9361C14.244 23.8161 13.904 23.2814 14.024 22.7427C14.024 22.7427 14.936 18.6334 14.0227 14.3867C13.436 11.6627 12.092 8.86541 9.1627 7.15741C8.6867 6.87874 8.52537 6.26674 8.8027 5.78941C9.08137 5.31341 9.69337 5.15207 10.1707 5.42941C13.6414 7.45474 15.284 10.7374 15.9774 13.9654C16.984 18.6467 15.976 23.1774 15.976 23.1774Z" fill="#388FF3"/>
<path fill-rule="evenodd" clip-rule="evenodd" d="M16.4067 17.824C16.2974 18.3653 15.7694 18.716 15.2294 18.6067C14.6881 18.4973 14.3374 17.9707 14.4467 17.4293C14.4467 17.4293 14.8654 15.1 17.8974 12.2333C18.2987 11.8547 18.9321 11.872 19.3107 12.2733C19.6907 12.6747 19.6721 13.308 19.2721 13.6867C16.8254 16 16.4067 17.824 16.4067 17.824Z" fill="#388FF3"/>
<path fill-rule="evenodd" clip-rule="evenodd" d="M18.0467 14.8015C17.9494 14.5402 17.6134 13.5522 17.5867 12.4068C17.5521 10.9242 18.0187 9.2255 19.8774 8.2735C23.1987 6.57483 27.2894 7.7695 29.0881 9.8415C29.3081 10.0948 29.3867 10.4388 29.2974 10.7615C29.2094 11.0842 28.9667 11.3402 28.6494 11.4468C28.6494 11.4468 27.0121 12.0428 25.8947 14.2775C25.3427 15.3802 23.9334 16.5642 22.4361 16.9735C21.6094 17.1988 20.7654 17.1948 20.0107 16.8908C19.7521 16.7868 19.5001 16.6468 19.2641 16.4668C19.6227 16.0175 20.0641 15.5308 20.6054 15.0202C21.0054 14.6415 21.0241 14.0082 20.6441 13.6068C20.2654 13.2055 19.6321 13.1882 19.2307 13.5668C18.7801 13.9922 18.3881 14.4055 18.0467 14.8015Z" fill="#388FF3"/>
<path fill-rule="evenodd" clip-rule="evenodd" d="M11.3652 12.8521C10.8506 13.0828 10.3546 13.1908 9.88522 13.2108C8.44388 13.2708 7.16655 12.4721 6.16122 11.3494C5.19988 10.2748 4.48922 8.92676 4.09322 8.07209C3.22388 6.20143 0.922551 3.65209 0.922551 3.65209C0.707885 3.41342 0.621218 3.08676 0.689218 2.77342C0.757218 2.46009 0.970551 2.19742 1.26388 2.06809C5.17188 0.353425 9.91722 -0.0985753 13.6252 2.87076C15.3492 4.25209 15.5772 6.00943 15.2079 7.63076C14.7186 9.78009 13.0839 11.6454 13.0839 11.6454C13.0719 11.6588 13.0586 11.6721 13.0466 11.6854C12.1052 9.50943 10.5772 7.50009 8.17055 6.09609C7.69322 5.81876 7.08122 5.98009 6.80255 6.45609C6.52522 6.93342 6.68655 7.54542 7.16255 7.82409C9.29989 9.07076 10.5946 10.8974 11.3652 12.8521Z" fill="#388FF3"/>
</svg>
