<svg width="32" height="32" viewBox="0 0 32 32" fill="none" xmlns="http://www.w3.org/2000/svg">
<g clip-path="url(#clip0_201_945)">
<path fill-rule="evenodd" clip-rule="evenodd" d="M28.5577 23.4789H6.93639C6.81583 23.4789 6.70276 23.4207 6.63226 23.3232L1.94118 16.8194C1.05505 15.5909 1.96406 13.8875 3.43894 13.8875C4.03482 13.8875 4.59694 14.174 4.94307 14.6538L8.63833 19.7767H28.5575C29.578 19.7767 30.4081 20.6069 30.4081 21.6275C30.4081 22.648 29.5784 23.4791 28.5578 23.4791L28.5577 23.4789Z" fill="#388FF3"/>
<path fill-rule="evenodd" clip-rule="evenodd" d="M27.1799 25.52H8.48584C8.27884 25.52 8.11084 25.3518 8.11084 25.145V23.1033C8.11084 22.8963 8.27884 22.7283 8.48584 22.7283H27.1799C27.3869 22.7283 27.5549 22.8965 27.5549 23.1033V25.145C27.5549 25.3518 27.3869 25.52 27.1799 25.52Z" fill="#388FF3"/>
<path fill-rule="evenodd" clip-rule="evenodd" d="M9.74726 32C8.84388 32 8.35394 31.105 8.75538 29.7247L10.1181 25.0401C10.2535 24.5746 10.9508 24.7686 10.8447 25.2246H12.1308L12.1844 25.0403C12.3222 24.5661 13.0426 24.776 12.9046 25.25L12.572 26.3931H23.0939C22.8815 25.6626 22.5082 24.9333 23.0165 24.7851C23.3759 24.6803 23.4731 25.0118 23.5314 25.2123H24.8178C24.7276 24.7651 25.4129 24.5787 25.547 25.0401L26.9098 29.7247C27.7256 32.5293 24.9024 32.6124 24.3348 30.6607L23.7764 28.7422H11.8883L11.3303 30.6607C11.1138 31.4043 10.4663 32.0002 9.74708 32.0002L9.74726 32Z" fill="#388FF3"/>
<path fill-rule="evenodd" clip-rule="evenodd" d="M8.38697 12.8709C7.96622 12.8709 7.96829 12.3189 7.85953 11.7768C7.57978 10.3829 7.6051 9.02879 7.88185 7.76504C10.1769 7.10597 11.7286 7.32498 12.5579 7.35048C12.6087 9.22117 12.8936 10.4707 13.2509 12.2787C12.5161 12.1584 11.0791 11.8439 8.61029 12.8131L8.38697 12.8709ZM8.10479 6.93029C9.04604 3.95821 11.4082 1.58989 14.4299 0.559386C13.2826 1.62852 12.6097 3.83334 12.5549 6.50447C11.1843 6.29672 9.32092 6.62447 8.10479 6.93047V6.93029ZM17.0806 0.0266964C20.3433 -0.200742 23.3585 1.07745 25.3524 3.41277C24.0573 3.60065 22.2047 4.01465 21.0615 4.70578C20.282 2.91702 18.7044 0.631011 17.0808 0.0265089L17.0806 0.0266964ZM25.8857 4.0979C26.6552 5.18447 27.2105 6.4471 27.4894 7.83591C27.6165 8.46854 27.8852 9.06686 27.1965 9.08148C24.4185 9.14092 23.2672 10.0565 22.6535 10.427C22.3014 8.67198 21.9423 7.01279 21.3748 5.48503C22.1321 5.15372 23.5608 4.35928 25.8857 4.09809V4.0979ZM21.909 10.5286C19.1608 10.145 16.3663 10.7099 13.9882 12.1415C13.6237 10.2972 13.3392 9.06517 13.3126 7.1431C13.9081 6.6961 16.5123 4.97747 20.6154 5.59116C21.2004 7.11235 21.5572 8.77567 21.909 10.5286ZM13.3242 6.22022C13.4437 3.24702 14.3527 0.9327 15.7979 0.642824C17.5983 0.281322 19.4608 3.00665 20.2788 4.79015C16.7891 4.38778 14.3979 5.53716 13.3242 6.22022Z" fill="#388FF3"/>
<path fill-rule="evenodd" clip-rule="evenodd" d="M20.772 20.5271C20.2778 20.5271 19.5008 20.5271 18.7322 20.5271C18.5573 20.5271 18.4009 20.4039 18.3651 20.2258L16.4364 10.6186C16.3789 10.3317 19.0995 9.91209 19.1327 10.0778L21.1403 20.0782C21.1868 20.3098 21.0079 20.5271 20.772 20.5271Z" fill="#388FF3"/>
</g>
<defs>
<clipPath id="clip0_201_945">
<rect width="32" height="32" fill="white"/>
</clipPath>
</defs>
</svg>
