<svg width="30" height="20" viewBox="0 0 30 20" fill="none" xmlns="http://www.w3.org/2000/svg">
<path d="M29.4757 8.0115C29.2885 7.69961 27.4415 6.9018 27.4415 6.9018C27.7628 6.73587 27.9823 6.70156 27.9823 6.0154C27.9823 5.26687 27.9786 5.01735 27.4796 5.01735H25.7866C25.7798 5.00238 25.7723 4.98679 25.7654 4.97119C24.6726 2.5846 24.526 1.98141 22.896 1.16924C20.7097 0.0819922 16.6108 0.0270996 15.0039 0.0270996C13.3971 0.0270996 9.29821 0.0819922 7.11372 1.16924C5.48191 1.98016 5.52246 2.39747 4.24435 4.97119C4.24435 4.97805 4.23125 4.99614 4.2194 5.01735H2.52459C2.0293 5.01735 2.02556 5.26687 2.02556 6.0154C2.02556 6.70156 2.24513 6.73587 2.56638 6.9018C2.56638 6.9018 0.781741 7.76199 0.532228 8.0115C0.282716 8.26102 0.0332031 10.0076 0.0332031 13.0018C0.0332031 15.9959 0.282716 18.9901 0.282716 18.9901H1.02751C1.02751 19.8634 1.15601 19.9881 1.53028 19.9881H6.52051C6.89478 19.9881 7.01953 19.8634 7.01953 18.9901H22.9883C22.9883 19.8634 23.1131 19.9881 23.4874 19.9881H28.6024C28.8519 19.9881 28.9766 19.801 28.9766 18.9901H29.7252C29.7252 18.9901 29.9747 15.9335 29.9747 13.0018C29.9747 10.07 29.6628 8.32339 29.4757 8.0115ZM6.84862 10.8148C5.71259 10.939 4.57067 11.0027 3.42782 11.0057C2.15406 11.0057 2.1104 11.0874 2.02057 10.2921C1.98678 9.92801 1.99747 9.56123 2.05238 9.19981L2.09168 9.00955H2.27882C3.02736 9.00955 3.73036 9.04137 5.05776 9.43248C5.73292 9.63508 6.36793 9.9529 6.9347 10.3719C7.20667 10.569 7.26905 10.7561 7.26905 10.7561L6.84862 10.8148ZM22.266 15.306L21.9903 15.9959H8.01758C8.01758 15.9959 8.04191 15.9579 7.70569 15.2985C7.45618 14.8107 7.76807 14.4988 8.26148 14.3217C9.21712 13.9774 12.0098 13.0018 15.0039 13.0018C17.9981 13.0018 20.8463 13.8426 21.772 14.3217C22.115 14.4988 22.5411 14.6236 22.266 15.3097V15.306ZM6.23482 6.78952C6.03333 6.80112 5.83142 6.80262 5.62975 6.79388C5.79255 6.50445 5.883 6.18195 6.04207 5.84511C6.54109 4.78468 7.11185 3.58453 8.12799 3.07864C9.59638 2.34757 12.6398 2.01821 15.0039 2.01821C17.3681 2.01821 20.4115 2.34507 21.8799 3.07864C22.896 3.58453 23.4643 4.78531 23.9658 5.84511C24.1261 6.18507 24.2153 6.51006 24.3825 6.80137C24.2577 6.80823 24.1143 6.80137 23.7718 6.78952H6.23482ZM27.925 10.2896C27.7915 11.068 27.9162 11.0057 26.5801 11.0057C25.4372 11.0027 24.2954 10.939 23.1593 10.8148C22.9815 10.783 22.931 10.4829 23.0732 10.3719C23.6371 9.94822 24.273 9.62997 24.9501 9.43248C26.2775 9.04137 27.0248 8.98897 27.7628 9.01517C27.8124 9.01704 27.8595 9.03725 27.8951 9.07175C27.9306 9.1063 27.9522 9.15284 27.9555 9.2023C27.9908 9.56541 27.9805 9.93151 27.925 10.2921V10.2896Z" fill="#388FF3"/>
</svg>
