<svg width="28" height="32" viewBox="0 0 28 32" fill="none" xmlns="http://www.w3.org/2000/svg">
<path d="M14.5708 12.857C14.5708 13.646 15.2104 14.2856 15.9994 14.2856C16.7883 14.2856 17.4279 13.646 17.4279 12.857C17.4279 12.068 16.7884 11.4285 15.9994 11.4285C15.2107 11.4293 14.5717 12.0684 14.5708 12.857Z" fill="#388FF3"/>
<path d="M17.9995 10.8572C18.0003 11.4881 18.5115 11.9994 19.1424 12.0001C19.7736 12.0001 20.2853 11.4884 20.2853 10.8572C20.2853 10.226 19.7736 9.71436 19.1424 9.71436C18.5112 9.71436 17.9995 10.226 17.9995 10.8572Z" fill="#388FF3"/>
<path d="M5.99656 6.88625C6.09193 6.86943 6.18843 6.85968 6.28518 6.85706C7.30975 6.86037 8.16543 7.639 8.26512 8.65868C8.45756 8.60343 8.6565 8.57406 8.85662 8.57131C9.9625 8.57362 10.908 9.36737 11.1018 10.4561C11.3883 10.3456 11.6924 10.2878 11.9995 10.2856C12.7801 10.2883 13.5166 10.6474 13.9995 11.2607C14.6806 10.3804 15.8597 10.0531 16.8972 10.4561C17.091 9.36737 18.0365 8.57362 19.1424 8.57131C19.3426 8.57406 19.5414 8.60343 19.7339 8.65868C19.8336 7.63893 20.6892 6.86037 21.7138 6.85706C21.8106 6.85968 21.9071 6.86943 22.0024 6.88625C22.0023 6.87631 21.9995 6.86706 21.9995 6.85706C22.0014 6.5735 22.0746 6.29493 22.2123 6.04706C21.5047 5.29443 20.8749 4.4725 20.3321 3.59368L20.3086 3.55881V3.55912C20.0009 3.06468 19.7641 2.62306 19.5863 2.26318C19.2693 2.47843 18.925 2.6505 18.5626 2.77493C18.5234 2.79412 18.4821 2.80856 18.4394 2.818C16.9996 3.2485 15.502 3.45443 13.9994 3.42856C12.497 3.45443 10.9996 3.24856 9.55981 2.81818C9.5165 2.80868 9.47456 2.794 9.43475 2.77443C9.07287 2.65012 8.72912 2.47825 8.41256 2.26325C8.23481 2.62312 7.99793 3.06475 7.69025 3.55918V3.55893L7.66681 3.59381C7.12406 4.47268 6.49412 5.29462 5.78662 6.04718C5.92425 6.29512 5.99737 6.57362 5.99937 6.85718C5.9995 6.86706 5.99668 6.87631 5.99656 6.88625Z" fill="#388FF3"/>
<path d="M23.714 7.42852C24.0296 7.42852 24.2855 7.17271 24.2855 6.85708C24.2851 6.54164 24.0295 6.28596 23.714 6.28564C23.3985 6.28564 23.1426 6.54146 23.1426 6.85708C23.1426 7.17271 23.3985 7.42852 23.714 7.42852Z" fill="#388FF3"/>
<path d="M20.8569 8.85713C20.8574 9.33031 21.2409 9.71375 21.7141 9.71425C22.1874 9.71425 22.5712 9.3305 22.5712 8.85713C22.5712 8.38375 22.1874 8 21.7141 8C21.2407 8 20.8569 8.38375 20.8569 8.85713Z" fill="#388FF3"/>
<path d="M13.9995 2.28569C17.312 2.28569 19.0252 1.46619 19.1407 1.14281C19.0251 0.8195 17.312 0 13.9995 0C10.6568 0 8.94309 0.834312 8.85547 1.1515C8.94309 1.45144 10.6568 2.28569 13.9995 2.28569Z" fill="#388FF3"/>
<path d="M7.71387 10.8572C7.71387 11.4884 8.22556 12.0001 8.85674 12.0001C9.48793 12.0001 9.99962 11.4884 9.99962 10.8572C9.99962 10.226 9.48793 9.71436 8.85674 9.71436C8.22587 9.71511 7.71462 10.2264 7.71387 10.8572Z" fill="#388FF3"/>
<path d="M12.4689 26.9467C13.4607 27.2908 14.5396 27.2907 15.5314 26.9462C25.8963 23.3078 27.4661 11.9437 27.6821 9.5614C26.6577 9.23565 25.6816 8.77409 24.7799 8.18896C24.4789 8.43478 24.1026 8.56978 23.7139 8.5714C23.7039 8.5714 23.6946 8.56859 23.6847 8.56846C23.7015 8.66384 23.7112 8.76034 23.7139 8.85715C23.7126 9.96115 22.8179 10.8558 21.7139 10.8572C21.6171 10.8545 21.5206 10.8448 21.4252 10.828C21.4254 10.838 21.4282 10.8472 21.4282 10.8572C21.4269 12.119 20.4043 13.1415 19.1425 13.1428C18.9423 13.1401 18.7434 13.1107 18.551 13.0555C18.4773 14.1078 17.7634 15.0063 16.755 15.3161C15.7466 15.6258 14.6514 15.283 13.9997 14.4534C13.3479 15.283 12.2528 15.6258 11.2444 15.3161C10.2359 15.0063 9.52206 14.1078 9.44837 13.0555C9.25593 13.1107 9.057 13.1401 8.85687 13.1428C7.59506 13.1415 6.5725 12.1189 6.57118 10.8572C6.57118 10.8472 6.574 10.838 6.57412 10.828C6.47875 10.8448 6.38225 10.8545 6.2855 10.8572C5.1815 10.8558 4.28681 9.96115 4.2855 8.85715C4.28812 8.76034 4.29787 8.66384 4.31462 8.56846C4.30475 8.56865 4.2955 8.5714 4.2855 8.5714C3.89687 8.56972 3.52056 8.43471 3.2195 8.18896C2.31793 8.77403 1.34206 9.23559 0.317871 9.56134C0.536434 11.9445 2.11787 23.313 12.4689 26.9467Z" fill="#388FF3"/>
<path d="M18.3555 30.7024C18.4395 31.0059 18.2624 31.3201 17.9593 31.4053C17.6562 31.4904 17.3413 31.3144 17.255 31.0116C16.9259 29.8351 16.9657 28.5859 17.369 27.4326C16.8992 27.6442 16.4175 27.8461 15.9085 28.0247C14.6724 28.4539 13.3278 28.4541 12.0916 28.0253C11.5822 27.8466 11.1001 27.6446 10.63 27.4327C11.0333 28.586 11.073 29.8351 10.744 31.0117C10.6894 31.2089 10.5334 31.3619 10.3351 31.4127C10.1369 31.4635 9.92654 31.4044 9.78373 31.2578C9.64092 31.1112 9.58748 30.8994 9.64348 30.7026C9.71592 30.4437 9.76629 30.1793 9.79392 29.912C7.06492 30.1763 5.88029 30.6232 5.51904 30.8599C6.16354 31.2988 9.02511 31.9999 13.9995 31.9999C18.9739 31.9999 21.8354 31.2988 22.48 30.8598C22.1187 30.6231 20.9338 30.1761 18.204 29.9118C18.2322 30.1791 18.2829 30.4436 18.3555 30.7024Z" fill="#388FF3"/>
<path d="M6.28535 9.71425C6.75872 9.71425 7.14247 9.3305 7.14247 8.85712C7.14247 8.38375 6.75872 8 6.28535 8C5.81216 8.0005 5.42872 8.384 5.42822 8.85712C5.42822 9.33044 5.81197 9.71425 6.28535 9.71425Z" fill="#388FF3"/>
<path d="M10.5708 12.857C10.5708 13.646 11.2104 14.2856 11.9994 14.2856C12.7883 14.2856 13.4279 13.646 13.4279 12.857C13.4279 12.068 12.7884 11.4285 11.9994 11.4285C11.2107 11.4293 10.5717 12.0684 10.5708 12.857Z" fill="#388FF3"/>
<path d="M4.2853 7.42852C4.60087 7.42852 4.85674 7.17271 4.85674 6.85708C4.85674 6.54146 4.60093 6.28564 4.2853 6.28564C3.96987 6.28596 3.71418 6.54164 3.71387 6.85708C3.71387 7.17271 3.96974 7.42852 4.2853 7.42852Z" fill="#388FF3"/>
</svg>
