<svg width="28" height="28" viewBox="0 0 28 28" fill="none" xmlns="http://www.w3.org/2000/svg">
<g id="grid-01">
<g id="Vector">
<path d="M22.7112 2.80005C24.0857 2.80005 25.2 3.8991 25.2 5.25484L25.2 9.4453C25.2 10.801 24.0857 11.9001 22.7112 11.9001H18.9778C17.6033 11.9001 16.4889 10.801 16.4889 9.4453L16.4889 5.25484C16.4889 3.8991 17.6032 2.80005 18.9778 2.80005L22.7112 2.80005Z" stroke="#388FF3" stroke-width="2.5" stroke-linecap="round" stroke-linejoin="round"/>
<path d="M5.28894 2.80005C3.91436 2.80005 2.80005 3.8991 2.80005 5.25484L2.80006 9.4453C2.80006 10.801 3.91437 11.9001 5.28895 11.9001H9.02228C10.3969 11.9001 11.5112 10.801 11.5112 9.4453L11.5112 5.25484C11.5112 3.8991 10.3968 2.80005 9.02227 2.80005L5.28894 2.80005Z" stroke="#388FF3" stroke-width="2.5" stroke-linecap="round" stroke-linejoin="round"/>
<path d="M22.7112 16.1001C24.0857 16.1001 25.2 17.1991 25.2 18.5549V22.7453C25.2 24.101 24.0857 25.2001 22.7112 25.2001H18.9778C17.6033 25.2001 16.4889 24.101 16.4889 22.7453L16.4889 18.5549C16.4889 17.1991 17.6033 16.1001 18.9778 16.1001H22.7112Z" stroke="#388FF3" stroke-width="2.5" stroke-linecap="round" stroke-linejoin="round"/>
<path d="M5.28895 16.1001C3.91437 16.1001 2.80006 17.1991 2.80006 18.5549L2.80006 22.7453C2.80006 24.101 3.91438 25.2001 5.28895 25.2001H9.02228C10.3969 25.2001 11.5112 24.101 11.5112 22.7453L11.5112 18.5549C11.5112 17.1991 10.3969 16.1001 9.02228 16.1001H5.28895Z" stroke="#388FF3" stroke-width="2.5" stroke-linecap="round" stroke-linejoin="round"/>
</g>
</g>
</svg>
