<svg width="28" height="28" viewBox="0 0 28 28" fill="none" xmlns="http://www.w3.org/2000/svg">
<g id="list">
<g id="Vector">
<path d="M5.17748 2.80005C3.86446 2.80005 2.80005 3.8991 2.80005 5.25484L2.80006 9.4453C2.80006 10.801 3.86447 11.9001 5.17749 11.9001H22.8226C24.1356 11.9001 25.2 10.801 25.2 9.4453L25.2 5.25484C25.2 3.8991 24.1356 2.80005 22.8226 2.80005L5.17748 2.80005Z" stroke="#D5D8DB" stroke-width="2.5" stroke-linecap="round" stroke-linejoin="round"/>
<path d="M5.17749 16.1001C3.86447 16.1001 2.80006 17.1991 2.80006 18.5549L2.80006 22.7453C2.80006 24.101 3.86448 25.2001 5.1775 25.2001H22.8226C24.1356 25.2001 25.2001 24.101 25.2001 22.7453L25.2 18.5549C25.2 17.1991 24.1356 16.1001 22.8226 16.1001H5.17749Z" stroke="#D5D8DB" stroke-width="2.5" stroke-linecap="round" stroke-linejoin="round"/>
</g>
</g>
</svg>
