<svg width="32" height="32" viewBox="0 0 32 32" fill="none" xmlns="http://www.w3.org/2000/svg">
<g clip-path="url(#clip0_201_614)">
<path d="M31.7498 12.832C31.5239 9.50903 30.1223 6.41577 27.7446 4.03809C25.1406 1.43408 21.6785 0 17.9956 0C17.468 0 17.0405 0.427734 17.0405 0.955322V12.832H31.7498Z" fill="#000000"/>
<path d="M6.11938 12.832V12.1118C6.11938 9.97363 4.37988 8.23413 2.2417 8.23413H1.26782C0.740234 8.23413 0.3125 8.66187 0.3125 9.18945C0.3125 9.71704 0.740234 10.1445 1.26782 10.1445H2.2417C3.32642 10.1445 4.20898 11.0271 4.20898 12.1118V12.832H6.11938Z" fill="#000000"/>
<path d="M26.5811 19.7722C28.1135 19.7722 29.5332 20.2627 30.6926 21.0942C31.5203 19.7703 31.9109 18.2905 31.7827 16.8782V14.7424H4.2085V16.9233C4.2085 18.2273 4.51318 19.4612 5.0542 20.5583C6.02466 20.0564 7.12549 19.7722 8.2915 19.7722C11.6143 19.7722 14.4084 22.0769 15.1609 25.1716H19.7117C20.4641 22.0769 23.2583 19.7722 26.5811 19.7722Z" fill="#000000"/>
<path d="M8.2915 21.6829C5.44702 21.6829 3.13281 23.9968 3.13281 26.8413C3.13281 29.6858 5.44702 32 8.2915 32C11.136 32 13.4502 29.6858 13.4502 26.8413C13.4502 23.9968 11.136 21.6829 8.2915 21.6829ZM8.2915 29.9351C6.58569 29.9351 5.19775 28.5474 5.19775 26.8413C5.19775 25.1355 6.58569 23.7478 8.2915 23.7478C9.99731 23.7478 11.3853 25.1355 11.3853 26.8413C11.3853 28.5474 9.99731 29.9351 8.2915 29.9351Z" fill="#000000"/>
<path d="M8.29175 25.6582C7.63916 25.6582 7.1084 26.189 7.1084 26.8413C7.1084 27.4939 7.63916 28.0247 8.29175 28.0247C8.94434 28.0247 9.4751 27.4939 9.4751 26.8413C9.4751 26.189 8.94409 25.6582 8.29175 25.6582Z" fill="#000000"/>
<path d="M31.7402 26.8413C31.7402 23.9968 29.426 21.6829 26.5815 21.6829C23.7371 21.6829 21.4229 23.9968 21.4229 26.8413C21.4229 29.6858 23.7371 32 26.5815 32C29.426 32 31.7402 29.6858 31.7402 26.8413ZM26.5815 29.9351C24.8757 29.9351 23.4878 28.5474 23.4878 26.8413C23.4878 25.1355 24.8757 23.7478 26.5815 23.7478C28.2874 23.7478 29.6753 25.1355 29.6753 26.8413C29.6753 28.5474 28.2874 29.9351 26.5815 29.9351Z" fill="#000000"/>
<path d="M26.5813 25.6582C25.9287 25.6582 25.3979 26.189 25.3979 26.8413C25.3979 27.4939 25.9287 28.0247 26.5813 28.0247C27.2339 28.0247 27.7646 27.4939 27.7646 26.8413C27.7646 26.189 27.2339 25.6582 26.5813 25.6582Z" fill="#000000"/>
</g>
<defs>
<clipPath id="clip0_201_614">
<rect width="32" height="32" fill="white"/>
</clipPath>
</defs>
</svg>
