<svg width="32" height="32" viewBox="0 0 32 32" fill="none" xmlns="http://www.w3.org/2000/svg">
<path d="M13 17H18.004V13H7.542L9.058 9.606C9.217 9.238 9.578 9 9.978 9H16.148C15.955 7.989 15.952 7.032 16.152 6H9.978C8.376 6 6.933 6.952 6.302 8.424L4.134 13.484C2.871 14.157 2 15.472 2 17V19C2 20.474 2.81 21.75 4 22.444V26C4 27.103 4.897 28 6 28H9C10.103 28 11 27.103 11 26V23H18.004V19H13C12.448 19 12 18.552 12 18C12 17.448 12.448 17 13 17ZM7.5 20.5C6.119 20.5 5 19.381 5 18C5 16.619 6.119 15.5 7.5 15.5C8.881 15.5 10 16.619 10 18C10 19.381 8.881 20.5 7.5 20.5Z" fill="#388FF3"/>
<path d="M29.9218 6.47694C29.5088 4.10994 27.5228 2.41694 26.3848 2.07194C26.1928 2.01394 26.0038 2.16594 26.0038 2.36594V7.38294C26.0038 7.76194 25.7898 8.10794 25.4508 8.27694L24.4508 8.77694C24.1688 8.91794 23.8378 8.91794 23.5568 8.77694L22.5568 8.27694C22.2178 8.10794 22.0038 7.76094 22.0038 7.38294V2.36594C22.0038 2.16494 21.8138 2.01294 21.6208 2.07194C20.4818 2.42494 18.4968 4.14394 18.0868 6.49094C17.7348 8.50694 18.4908 10.4839 19.6838 11.6779C19.8798 11.8739 20.0028 12.1269 20.0028 12.4039V26.0009C20.0028 28.2089 21.7928 29.9989 24.0008 29.9989C26.2088 29.9989 27.9988 28.2089 27.9988 26.0009L28.0018 12.4089C28.0018 12.1289 28.1288 11.8709 28.3268 11.6719C29.5278 10.4719 30.2728 8.48594 29.9218 6.47694ZM24.0088 27.4999C23.1808 27.4999 22.5088 26.8279 22.5088 25.9999C22.5088 25.1719 23.1808 24.4999 24.0088 24.4999C24.8368 24.4999 25.5088 25.1719 25.5088 25.9999C25.5088 26.8279 24.8368 27.4999 24.0088 27.4999Z" fill="#388FF3"/>
</svg>
