<svg width="32" height="32" viewBox="0 0 32 32" fill="none" xmlns="http://www.w3.org/2000/svg">
<path d="M17.2034 2.3999H13.5019C13.06 2.3999 12.7019 2.75798 12.7019 3.1999V4.40662H10.2443C9.80242 4.40662 9.44434 4.7647 9.44434 5.20662C9.44434 5.64854 9.80242 6.00662 10.2443 6.00662H20.4607C20.9026 6.00662 21.2607 5.64854 21.2607 5.20662C21.2607 4.7647 20.9026 4.40662 20.4607 4.40662H18.0031V3.1999C18.0034 2.75798 17.6453 2.3999 17.2034 2.3999ZM16.4034 4.40662H14.3023V3.9999H16.4034V4.40662Z" fill="#388FF3"/>
<path d="M7.58108 7.12538C7.44924 7.4057 7.49084 7.73658 7.68764 7.97562L9.76316 10.4918L10.8092 20.0035C10.8048 20.0102 9.5238 22.6262 9.52188 22.6307C9.48348 22.7126 9.45916 22.807 9.44796 22.8947L8.89404 28.7247C8.87292 28.9491 8.94716 29.1718 9.09884 29.3385C9.25052 29.5052 9.46556 29.6003 9.69084 29.6003H21.0153C21.2406 29.6003 21.4556 29.5052 21.6073 29.3385C21.759 29.1718 21.8332 28.9491 21.8121 28.7247L21.2576 22.8943C21.2473 22.8063 21.2208 22.7097 21.1836 22.6303C21.1836 22.6303 19.8992 20.015 19.896 20.0028L20.1776 17.4252L21.5459 16.7507C22.6416 16.2102 23.4224 15.1689 23.6339 13.9651L24.4611 9.25914C24.5744 8.61402 24.398 7.95706 23.9769 7.45562C23.5561 6.95418 22.9388 6.6665 22.2841 6.6665H20.4608H8.30492C7.99516 6.6665 7.71324 6.84538 7.58108 7.12538ZM21.1782 8.2665H22.2841C22.5315 8.2665 22.6832 8.40314 22.7516 8.48442C22.8198 8.5657 22.9283 8.7385 22.8854 8.98234L22.0582 13.6879C21.9344 14.3913 21.478 14.9999 20.838 15.3158L20.3833 15.5401L21.1782 8.2665ZM19.5686 8.2665L19.2147 11.5062C19.0915 11.4406 18.974 11.3564 18.8348 11.2553C18.423 10.9558 17.8595 10.5459 16.8342 10.5459C15.8092 10.5459 15.2454 10.9558 14.8339 11.2553C14.4883 11.5065 14.2796 11.6585 13.7747 11.6585C13.2707 11.6585 13.062 11.5065 12.7164 11.2553C12.4051 11.0287 12.0057 10.7395 11.3859 10.6118L11.3273 10.0796C11.31 9.92506 11.2483 9.7785 11.1491 9.65818L10.0012 8.2665H19.5686Z" fill="#388FF3"/>
</svg>
