<svg width="32" height="14" viewBox="0 0 32 14" fill="none" xmlns="http://www.w3.org/2000/svg">
<path d="M28.5314 10.1423H28.1127C26.2505 10.1423 24.4329 9.53987 22.9409 8.43756L20.6119 10.7666L19.2854 9.44012L21.4824 7.24306L20.3859 6.3305L17.963 8.75343L16.6365 7.42693L18.938 5.12543L17.8414 4.21281L15.3141 6.74018L13.9876 5.41368L16.3936 3.00768L14.263 1.23443C13.9947 1.01112 13.6548 0.888184 13.3057 0.888184C12.4806 0.888184 11.8093 1.55943 11.8093 2.38456V3.19925C11.8093 5.88525 9.62406 8.0705 6.93806 8.0705C5.05275 8.0705 3.31975 6.96637 2.52306 5.25762L2.29375 4.76587C2.09694 4.34375 1.66887 4.07093 1.20312 4.07093C0.53975 4.07093 0 4.61068 0 5.27425V13.2949H32C31.8321 11.5287 30.3408 10.1423 28.5314 10.1423Z" fill="#388FF3"/>
</svg>
