<svg width="30" height="32" viewBox="0 0 30 32" fill="none" xmlns="http://www.w3.org/2000/svg">
<path d="M9.58985 2.40527C9.33852 2.507 9.11117 2.65062 8.90771 2.83009C9.05732 4.04475 9.66165 5.16367 10.5891 5.90564C10.6489 5.95351 10.7327 5.98343 10.8105 5.98343C11.008 5.98343 11.1695 5.82186 11.1635 5.61845C11.1635 5.51074 11.1156 5.415 11.0378 5.34917C10.1762 4.65507 9.6437 3.56608 9.58985 2.40527Z" fill="#388FF3"/>
<path d="M12.8447 8.60425H17.3204V9.44196H12.8447V8.60425Z" fill="#388FF3"/>
<path d="M12.2344 0.382812H13.4371V1.14872H12.2344V0.382812Z" fill="#388FF3"/>
<path d="M2.88807 3.72776H7.48341C7.90823 2.40538 9.12887 1.51386 10.5171 1.50788H11.5163V0.0239363V0H4.6592C3.29494 0 2.18799 1.10695 2.18799 2.47121V3.72776H2.88807Z" fill="#388FF3"/>
<path d="M17.8173 7.88627V4.96631H12.3604V7.88627H12.486H17.6797H17.8173Z" fill="#388FF3"/>
<path d="M26.5351 19.8413C26.3796 19.6917 25.6795 19.4045 24.4529 19.4045C23.2263 19.4045 22.5262 19.6918 22.3706 19.8413C22.5262 19.9909 23.2263 20.2781 24.4529 20.2781C25.6795 20.2781 26.3796 19.9909 26.5351 19.8413Z" fill="#388FF3"/>
<path d="M11.5048 27.0935H18.5294V20.015C18.5294 19.9791 18.5294 19.9432 18.5354 19.9073C18.0627 19.2251 17.3327 18.2618 16.2198 16.8916C14.8495 15.2162 13.4674 13.6365 13.0724 13.1877C11.4569 13.2715 10.1824 14.5999 10.1704 16.2214C10.2183 16.5804 10.667 20.2064 10.667 21.4869C10.667 22.528 10.2243 25.442 10.1704 25.7831C10.1824 26.5131 10.7747 27.0935 11.5048 27.0935Z" fill="#388FF3"/>
<path d="M3.19947 4.4458L2.50537 9.81304H7.23236L6.53826 4.4458H5.95188V8.90955C5.95188 9.10702 5.79031 9.26854 5.59289 9.26854C5.39546 9.26854 5.2339 9.10697 5.2339 8.90955V4.4458H4.39019V8.90955C4.39019 9.10702 4.22862 9.26854 4.0312 9.26854C3.83373 9.26854 3.67221 9.10697 3.67221 8.90955V4.4458H3.19947Z" fill="#388FF3"/>
<path d="M20.6472 18.7944C20.019 19.0458 19.5702 19.3509 19.3668 19.6561C19.3548 19.674 19.3428 19.692 19.3368 19.7099C19.3308 19.7099 19.3308 19.7099 19.3308 19.7159C19.3249 19.7339 19.3129 19.7458 19.3069 19.7638H19.3009L19.283 19.8177H19.277L19.259 19.8775V19.8895C19.2531 19.9014 19.2531 19.9194 19.2531 19.9313C19.2531 19.9373 19.2471 19.9433 19.2471 19.9493V20.0032C19.2531 20.1348 19.2949 20.2545 19.3668 20.3621C19.5702 20.6673 20.019 20.9725 20.6472 21.2238C20.8866 21.3136 21.1319 21.3973 21.3772 21.4632C21.6046 21.523 21.838 21.5828 22.0893 21.6247C22.8672 21.7743 23.657 21.8461 24.4528 21.8402C25.4939 21.8402 26.4872 21.7265 27.3368 21.5111L29.4132 20.5178C29.461 20.47 29.5029 20.4161 29.5388 20.3623C29.7004 20.1468 29.7004 19.8596 29.5388 19.6442C29.3354 19.3391 28.8866 19.0339 28.2583 18.7826C27.2471 18.3817 25.8948 18.1663 24.4528 18.1663C23.7527 18.1663 23.0526 18.2201 22.3585 18.3278C22.1012 18.3697 21.8559 18.4236 21.6225 18.4774C21.2875 18.5611 20.9644 18.6628 20.6472 18.7944ZM24.4528 18.6867C25.853 18.6867 27.271 19.0397 27.271 19.8415C27.271 20.6433 25.8529 20.9964 24.4528 20.9964C23.0526 20.9964 21.6346 20.6374 21.6346 19.8415C21.6346 19.0457 23.0526 18.6867 24.4528 18.6867Z" fill="#388FF3"/>
<path d="M24.4527 22.5699C23.6629 22.5699 22.8671 22.5041 22.0892 22.3724C21.8379 22.3306 21.5926 22.2767 21.3652 22.2169C20.4677 21.9895 19.7377 21.6664 19.2471 21.2715V28.8885C19.2471 29.2834 19.7198 29.7143 20.5276 30.0553L20.6472 30.1032C20.9345 30.2169 21.2336 30.3126 21.5328 30.3844C22.3047 30.5759 23.0945 30.6896 23.8903 30.7135V23.4017C23.8903 23.264 23.9681 23.1384 24.0938 23.0786L25.1948 22.552C24.9494 22.5639 24.7041 22.5699 24.4527 22.5699Z" fill="#388FF3"/>
<path d="M24.6084 23.629V32L25.9368 31.3657L29.6585 29.5826V21.2715C29.1679 21.6664 28.4439 21.9895 27.5583 22.2169L24.6084 23.629Z" fill="#388FF3"/>
<path d="M20.1146 16.6523C20.2104 16.6343 20.2822 16.5505 20.2881 16.4548C20.33 16.036 20.354 15.6231 20.354 15.2162C20.354 14.187 20.1804 13.2237 19.5522 12.5117C18.9239 11.7996 17.9606 11.4526 16.5843 11.4167C16.5245 11.4107 16.4646 11.4346 16.4228 11.4765C16.3928 11.5064 16.3689 11.5423 16.3569 11.5842C16.4886 11.8535 17.1647 12.8587 18.152 14.1871C19.1393 15.5155 19.8753 16.4309 20.1146 16.6523Z" fill="#388FF3"/>
<path d="M7.29808 28.0269C7.30407 27.985 7.99218 23.5093 7.99218 22.0434C7.99218 20.2363 7.30407 14.7374 7.29808 14.6776C7.2921 14.6656 7.2921 14.6477 7.2921 14.6357C7.2921 13.8518 7.47162 13.08 7.81266 12.3799L7.35792 10.531H2.39157L1.80518 13.5647L0.351159 27.8354C0.291319 28.3859 0.470841 28.9364 0.8418 29.3433C1.21276 29.7561 1.73936 29.9895 2.28984 29.9895H8.06394C7.56731 29.4809 7.29204 28.7928 7.29204 28.0807C7.2921 28.0628 7.2921 28.0448 7.29808 28.0269Z" fill="#388FF3"/>
<path d="M18.5293 28.8887V27.8116H11.5046C10.3737 27.8056 9.45824 26.8902 9.45226 25.7593C9.45226 25.7413 9.45226 25.7233 9.45824 25.7054C9.46422 25.6755 9.94888 22.5162 9.94888 21.487C9.94888 20.2125 9.45824 16.3292 9.45824 16.2873C9.45226 16.2753 9.45226 16.2574 9.45226 16.2454C9.45824 14.1631 11.1456 12.4758 13.2279 12.4698C13.3296 12.4698 13.4313 12.5117 13.4972 12.5895C13.5151 12.6074 15.1546 14.4563 16.7762 16.4369C17.7096 17.5798 18.3797 18.4534 18.8645 19.1295C19.3611 18.5132 20.3723 18.0166 21.7006 17.7294C21.8622 16.1916 22.0357 14.8274 22.0596 14.6119C22.0417 12.1527 20.0551 10.1721 17.5959 10.1602H12.48C10.8525 10.1602 9.35656 11.0457 8.5727 12.4698C8.36326 12.8467 8.20773 13.2537 8.11797 13.6725C8.04616 13.9836 8.01025 14.2948 8.01025 14.6119C8.07009 15.0547 8.71034 20.2304 8.71034 22.0435C8.71034 23.5154 8.07608 27.686 8.01025 28.1108C8.02222 28.7989 8.38121 29.4391 8.96161 29.8041C9.22491 29.9717 9.51808 30.0734 9.82327 30.1092L10.0507 30.1212H19.2175C18.7746 29.7562 18.5293 29.3374 18.5293 28.8887ZM15.6333 11.6082C15.6393 11.3569 15.747 11.1176 15.9324 10.95C16.1119 10.7765 16.3513 10.6867 16.6026 10.6987C18.1882 10.7406 19.3311 11.1833 20.085 12.039C21.1441 13.2297 21.156 14.8991 21.0064 16.5207C20.9586 17.0054 20.5517 17.3764 20.067 17.3764H19.9773C19.8037 17.3584 19.5884 17.3405 17.5899 14.6479C17.0872 13.9717 16.6205 13.3195 16.2735 12.805C15.6273 11.8415 15.6273 11.7338 15.6333 11.6082Z" fill="#388FF3"/>
</svg>
