<svg width="32" height="32" viewBox="0 0 32 32" fill="none" xmlns="http://www.w3.org/2000/svg">
<g clip-path="url(#clip0_201_1204)">
<path d="M31.0618 31.2808C30.1458 30.5789 29.1548 29.9805 28.1069 29.4968L24.3611 27.7673C24.1758 28.2954 23.6914 29.4771 22.7341 30.6653C22.3296 31.1675 21.8882 31.6125 21.4141 32H32.0002L31.0618 31.2808Z" fill="#000000"/>
<path d="M9.26611 30.6653C8.30884 29.4771 7.82446 28.2954 7.63916 27.7673L3.89331 29.4968C2.84546 29.9805 1.85449 30.5789 0.938477 31.2808L0 32H10.5862C10.1123 31.6125 9.67065 31.1677 9.26611 30.6653Z" fill="#000000"/>
<path d="M22.103 26.1248V25.9114C20.4509 27.3003 18.3215 28.1382 16 28.1382C13.6785 28.1382 11.5491 27.3003 9.89722 25.9114V26.1248C9.89722 26.4895 9.68335 26.8237 9.35254 26.9763C9.35254 26.9763 10.7993 32 16.0002 32C21.2009 32 22.6477 26.9763 22.6477 26.9763C22.3167 26.8237 22.103 26.4895 22.103 26.1248Z" fill="#000000"/>
<path d="M16 26.2622C20.2046 26.2622 23.625 22.8403 23.625 18.634V15.2571H8.375V18.634C8.375 22.8403 11.7957 26.2622 16 26.2622Z" fill="#000000"/>
<path d="M6.39722 13.3811H25.6023C26.1201 13.3811 26.5398 12.9612 26.5398 12.4434C26.5398 11.9253 26.1201 11.5054 25.6023 11.5054H24.8147V10.5356C24.8147 7.5127 23.2864 4.84082 20.9624 3.25122V7.2085C20.9624 7.72656 20.5427 8.14648 20.0249 8.14648C19.5073 8.14648 19.0874 7.72656 19.0874 7.2085V2.65479C19.0874 2.53003 19.1123 2.41089 19.1567 2.302C18.4553 2.03198 17.7112 1.84912 16.9373 1.76685V8.35889C16.9373 8.87695 16.5173 9.29688 15.9998 9.29688C15.4819 9.29688 15.0623 8.87695 15.0623 8.35889V1.76685C14.2883 1.84888 13.5444 2.03198 12.8433 2.30176C12.8875 2.41089 12.9124 2.52979 12.9124 2.65479V7.2085C12.9124 7.72656 12.4927 8.14648 11.9749 8.14648C11.457 8.14648 11.0374 7.72656 11.0374 7.2085V3.25073C8.71313 4.84033 7.18457 7.5127 7.18457 10.5356V11.5054H6.39697C5.87939 11.5054 5.45947 11.9253 5.45947 12.4434C5.45947 12.9612 5.87939 13.3811 6.39722 13.3811Z" fill="#000000"/>
<path d="M20.9624 2.65479C20.9624 2.13672 20.5427 1.7168 20.0249 1.7168C19.6321 1.7168 19.2959 1.95898 19.1567 2.30225C19.7979 2.54907 20.4033 2.86865 20.9624 3.25122V2.65479Z" fill="#000000"/>
<path d="M11.9751 1.7168C11.4573 1.7168 11.0376 2.13672 11.0376 2.65479V3.25073C11.5967 2.86816 12.2021 2.54858 12.8433 2.30176C12.7039 1.95898 12.3679 1.7168 11.9751 1.7168Z" fill="#000000"/>
<path d="M16.9375 1.76685V0.937988C16.9375 0.419922 16.5178 0 16 0C15.4822 0 15.0625 0.419922 15.0625 0.937988V1.76685C15.3706 1.73389 15.6833 1.7168 16 1.7168C16.3167 1.7168 16.6294 1.73389 16.9375 1.76685Z" fill="#000000"/>
</g>
<defs>
<clipPath id="clip0_201_1204">
<rect width="32" height="32" fill="white"/>
</clipPath>
</defs>
</svg>
