<svg width="32" height="22" viewBox="0 0 32 22" fill="none" xmlns="http://www.w3.org/2000/svg">
<path d="M18.7152 7.29076H13.2849C12.994 7.29076 12.7516 7.53318 12.7516 7.82409V10.7817C12.7516 11.0726 12.994 11.315 13.2849 11.315H18.6667C18.9576 11.315 19.2001 11.0726 19.2001 10.7817V7.82409C19.2001 7.53318 18.9576 7.29076 18.7152 7.29076ZM18.7152 7.29076H13.2849C12.994 7.29076 12.7516 7.53318 12.7516 7.82409V10.7817C12.7516 11.0726 12.994 11.315 13.2849 11.315H18.6667C18.9576 11.315 19.2001 11.0726 19.2001 10.7817V7.82409C19.2001 7.53318 18.9576 7.29076 18.7152 7.29076ZM18.7152 7.29076H13.2849C12.994 7.29076 12.7516 7.53318 12.7516 7.82409V10.7817C12.7516 11.0726 12.994 11.315 13.2849 11.315H18.6667C18.9576 11.315 19.2001 11.0726 19.2001 10.7817V7.82409C19.2001 7.53318 18.9576 7.29076 18.7152 7.29076ZM18.7152 7.29076H13.2849C12.994 7.29076 12.7516 7.53318 12.7516 7.82409V10.7817C12.7516 11.0726 12.994 11.315 13.2849 11.315H18.6667C18.9576 11.315 19.2001 11.0726 19.2001 10.7817V7.82409C19.2001 7.53318 18.9576 7.29076 18.7152 7.29076ZM31.4183 16.4059L29.1395 6.70894C28.9455 7.1453 28.7031 7.58167 28.4122 7.96954C27.394 9.27864 25.8425 10.0059 24.194 10.0059H21.3334C21.0425 10.0059 20.8001 9.76348 20.8001 9.47257C20.8001 9.18167 21.0425 8.93924 21.3334 8.93924H24.194C25.5516 8.93924 26.7637 8.35742 27.5879 7.29076C28.4122 6.22409 28.7031 4.915 28.4122 3.60591L27.9273 1.61803C27.7334 0.890755 27.1031 0.357422 26.3273 0.357422H5.67279C4.89704 0.357422 4.26673 0.890755 4.07279 1.61803L3.63643 3.60591C3.34552 4.915 3.63643 6.27257 4.46067 7.29076C5.28491 8.35742 6.54552 8.93924 7.85461 8.93924H10.7152C11.0061 8.93924 11.2486 9.18167 11.2486 9.47257C11.2486 9.76348 11.0061 10.0059 10.7152 10.0059H7.85461C6.20613 10.0059 4.65461 9.27864 3.63643 7.96954C3.34552 7.58167 3.1031 7.1453 2.90916 6.70894L0.630368 16.4059C0.339459 17.715 0.630368 19.0726 1.45461 20.0908C2.27885 21.1574 3.53946 21.7392 4.84855 21.7392H27.1516C28.5092 21.7392 29.7213 21.1574 30.5455 20.0908C31.4183 19.0241 31.7092 17.715 31.4183 16.4059ZM20.2667 10.7817C20.2667 11.6544 19.5879 12.3332 18.7152 12.3332H13.2849C12.4122 12.3332 11.7334 11.6544 11.7334 10.7817V7.82409C11.7334 6.95136 12.4122 6.27257 13.2849 6.27257H18.6667C19.5395 6.27257 20.2183 6.95136 20.2183 7.82409L20.2667 10.7817ZM18.7152 7.29076H13.2849C12.994 7.29076 12.7516 7.53318 12.7516 7.82409V10.7817C12.7516 11.0726 12.994 11.315 13.2849 11.315H18.6667C18.9576 11.315 19.2001 11.0726 19.2001 10.7817V7.82409C19.2001 7.53318 18.9576 7.29076 18.7152 7.29076ZM18.7152 7.29076H13.2849C12.994 7.29076 12.7516 7.53318 12.7516 7.82409V10.7817C12.7516 11.0726 12.994 11.315 13.2849 11.315H18.6667C18.9576 11.315 19.2001 11.0726 19.2001 10.7817V7.82409C19.2001 7.53318 18.9576 7.29076 18.7152 7.29076ZM18.7152 7.29076H13.2849C12.994 7.29076 12.7516 7.53318 12.7516 7.82409V10.7817C12.7516 11.0726 12.994 11.315 13.2849 11.315H18.6667C18.9576 11.315 19.2001 11.0726 19.2001 10.7817V7.82409C19.2001 7.53318 18.9576 7.29076 18.7152 7.29076Z" fill="#000000"/>
</svg>
